<mxfile host="65bd71144e">
    <diagram id="1buBUfbnmNIFQrgAlFPv" name="Page-1">
        <mxGraphModel dx="1086" dy="513" grid="1" gridSize="10" guides="1" tooltips="1" connect="1" arrows="1" fold="1" page="1" pageScale="1" pageWidth="850" pageHeight="1100" math="0" shadow="0">
            <root>
                <mxCell id="0"/>
                <mxCell id="1" parent="0"/>
                <mxCell id="21" value="" style="edgeStyle=none;html=1;" edge="1" parent="1" source="2" target="20">
                    <mxGeometry relative="1" as="geometry"/>
                </mxCell>
                <mxCell id="2" value="start" style="html=1;dashed=0;whiteSpace=wrap;shape=mxgraph.dfd.start;fillColor=#f8cecc;strokeColor=#b85450;" parent="1" vertex="1">
                    <mxGeometry x="385" y="50" width="80" height="30" as="geometry"/>
                </mxCell>
                <mxCell id="15" value="" style="edgeStyle=none;html=1;" parent="1" source="8" edge="1">
                    <mxGeometry relative="1" as="geometry">
                        <mxPoint x="425" y="402" as="targetPoint"/>
                    </mxGeometry>
                </mxCell>
                <mxCell id="8" value="if age &amp;gt;= 18" style="rhombus;whiteSpace=wrap;html=1;fillColor=#d5e8d4;strokeColor=#82b366;" parent="1" vertex="1">
                    <mxGeometry x="385" y="292" width="80" height="80" as="geometry"/>
                </mxCell>
                <mxCell id="17" value="" style="edgeStyle=none;html=1;entryX=0.5;entryY=0;entryDx=0;entryDy=0;" parent="1" target="25" edge="1">
                    <mxGeometry relative="1" as="geometry">
                        <mxPoint x="425" y="462" as="sourcePoint"/>
                        <mxPoint x="425" y="490" as="targetPoint"/>
                    </mxGeometry>
                </mxCell>
                <mxCell id="23" value="" style="edgeStyle=none;html=1;" edge="1" parent="1" source="11" target="8">
                    <mxGeometry relative="1" as="geometry"/>
                </mxCell>
                <mxCell id="11" value="input age" style="html=1;strokeWidth=2;shape=manualInput;whiteSpace=wrap;rounded=1;size=26;arcSize=11;fillColor=#fff2cc;strokeColor=#d6b656;" parent="1" vertex="1">
                    <mxGeometry x="375" y="200" width="100" height="60" as="geometry"/>
                </mxCell>
                <mxCell id="13" value="" style="endArrow=none;html=1;exitX=1;exitY=0.5;exitDx=0;exitDy=0;" parent="1" source="8" edge="1">
                    <mxGeometry width="50" height="50" relative="1" as="geometry">
                        <mxPoint x="570" y="352" as="sourcePoint"/>
                        <mxPoint x="600" y="332" as="targetPoint"/>
                    </mxGeometry>
                </mxCell>
                <mxCell id="14" value="" style="endArrow=none;html=1;" parent="1" edge="1">
                    <mxGeometry width="50" height="50" relative="1" as="geometry">
                        <mxPoint x="600" y="332" as="sourcePoint"/>
                        <mxPoint x="600" y="500" as="targetPoint"/>
                    </mxGeometry>
                </mxCell>
                <mxCell id="16" value="end" style="html=1;dashed=0;whiteSpace=wrap;shape=mxgraph.dfd.start;fillColor=#f8cecc;strokeColor=#b85450;" parent="1" vertex="1">
                    <mxGeometry x="385" y="535" width="80" height="30" as="geometry"/>
                </mxCell>
                <mxCell id="18" value="" style="endArrow=classic;html=1;" parent="1" edge="1">
                    <mxGeometry width="50" height="50" relative="1" as="geometry">
                        <mxPoint x="600" y="500" as="sourcePoint"/>
                        <mxPoint x="440" y="500" as="targetPoint"/>
                        <Array as="points">
                            <mxPoint x="530" y="500"/>
                        </Array>
                    </mxGeometry>
                </mxCell>
                <mxCell id="19" value="you r adult" style="shape=display;whiteSpace=wrap;html=1;fillColor=#e1d5e7;strokeColor=#9673a6;" vertex="1" parent="1">
                    <mxGeometry x="385" y="412" width="80" height="40" as="geometry"/>
                </mxCell>
                <mxCell id="22" value="" style="edgeStyle=none;html=1;" edge="1" parent="1" source="20" target="11">
                    <mxGeometry relative="1" as="geometry"/>
                </mxCell>
                <mxCell id="20" value="input age" style="shape=display;whiteSpace=wrap;html=1;fillColor=#e1d5e7;strokeColor=#9673a6;" vertex="1" parent="1">
                    <mxGeometry x="385" y="130" width="80" height="40" as="geometry"/>
                </mxCell>
                <mxCell id="26" value="" style="edgeStyle=none;html=1;" edge="1" parent="1" source="25" target="16">
                    <mxGeometry relative="1" as="geometry"/>
                </mxCell>
                <mxCell id="25" value="" style="ellipse;whiteSpace=wrap;html=1;aspect=fixed;" vertex="1" parent="1">
                    <mxGeometry x="414" y="490" width="22" height="22" as="geometry"/>
                </mxCell>
            </root>
        </mxGraphModel>
    </diagram>
</mxfile>